<svg width="38" height="35" viewBox="0 0 38 35" fill="none" xmlns="http://www.w3.org/2000/svg">
<rect x="1.41064" y="1.2655" width="33.7761" height="31.9611" rx="3" stroke="#D2ECFF" stroke-width="2"/>
<path d="M5.8606 25.603C6.41794 25.4383 6.91827 25.1407 7.3616 24.71C7.80494 24.292 8.12794 23.7727 8.3306 23.152C8.49527 22.6707 8.60294 22.1133 8.6536 21.48C8.70427 20.834 8.7296 19.846 8.7296 18.516V10.08L6.9056 9.833V8.883H12.4916V9.833L10.7626 10.08V17.775V18.668C10.7626 19.6687 10.7499 20.473 10.7246 21.081C10.6993 21.689 10.6423 22.2083 10.5536 22.639C10.3256 23.6523 9.82527 24.4883 9.0526 25.147C8.27994 25.8057 7.38694 26.2237 6.3736 26.401L5.8606 25.603ZM16.3269 10.061L14.2559 9.833V8.883H19.2909L21.9699 17.433L22.5969 19.846L23.1669 17.433L25.8269 8.883H30.8239V9.833L28.7339 10.061L30.2539 21.86L31.9069 22.069V23H26.4349V22.069L28.1639 21.879L27.3089 13.348L26.9099 9.681L26.1119 12.417L22.9389 22.354H21.7039L18.6259 13.253L17.5049 9.662L17.1629 13.348L16.4029 21.879L18.2839 22.069V23H13.3249V22.069L14.9399 21.879L16.3269 10.061Z" fill="#D2ECFF"/>
</svg>
